<?xml version="1.0" standalone="no"?>
<!DOCTYPE svg PUBLIC "-//W3C//DTD SVG 20010904//EN"
 "http://www.w3.org/TR/2001/REC-SVG-20010904/DTD/svg10.dtd">
<svg version="1.0" xmlns="http://www.w3.org/2000/svg"
 width="260.000000pt" height="260.000000pt" viewBox="0 0 260.000000 260.000000"
 preserveAspectRatio="xMidYMid meet">
<metadata>
Created by potrace 1.14, written by Peter Selinger 2001-2017
</metadata>
<g transform="translate(0.000000,260.000000) scale(0.100000,-0.100000)"
fill="#000000" stroke="none">
<path d="M1167 2414 c-3 -3 -23 -7 -44 -9 -21 -2 -47 -6 -58 -9 -11 -2 -23 -5
-27 -5 -5 -1 -8 -6 -8 -12 0 -6 8 -8 18 -5 55 16 114 16 144 0 22 -11 37 -13
47 -7 33 20 189 7 340 -28 91 -22 111 -20 61 6 -71 37 -189 57 -332 56 -55 0
-108 4 -118 9 -9 5 -20 7 -23 4z"/>
<path d="M1135 2361 c-3 -5 -1 -12 4 -15 13 -8 42 4 35 15 -7 12 -31 12 -39 0z"/>
<path d="M1068 2345 c-27 -7 -48 -11 -48 -9 0 2 -39 -15 -86 -36 -47 -22 -91
-40 -98 -40 -6 0 -17 -9 -24 -20 -10 -17 -10 -20 3 -20 9 0 29 7 45 15 17 9
31 15 32 15 4 -2 38 10 63 20 81 34 164 49 285 50 105 1 176 -3 185 -10 13
-11 145 -31 156 -25 10 7 71 -16 98 -37 25 -19 81 -25 81 -8 0 9 -48 33 -115
58 -16 6 -55 14 -86 17 -31 3 -72 10 -90 16 -49 16 -248 21 -287 8 -26 -9 -37
-8 -50 4 -14 12 -24 12 -64 2z"/>
<path d="M1160 2290 c-83 -11 -155 -27 -197 -46 -54 -22 -88 -36 -91 -35 -1 1
-26 -11 -54 -25 -55 -28 -110 -73 -103 -85 3 -3 45 13 94 37 49 24 95 44 102
44 7 0 20 7 30 16 16 14 103 41 160 48 14 2 36 9 49 16 17 9 51 10 124 5 155
-10 169 -12 199 -24 16 -6 42 -11 59 -11 33 0 251 -79 257 -93 6 -16 45 -47
58 -47 7 0 13 6 13 13 0 23 -42 54 -115 87 -38 17 -83 38 -99 46 -15 8 -74 21
-129 29 -56 9 -110 18 -121 20 -45 9 -184 12 -236 5z"/>
<path d="M1125 2224 c-98 -24 -309 -105 -365 -140 -51 -31 -100 -79 -100 -98
0 -22 27 -20 34 2 3 9 32 32 65 50 32 17 64 39 71 47 7 8 21 15 31 15 10 0 33
6 51 14 205 86 293 105 428 94 111 -8 197 -32 278 -75 34 -18 70 -33 80 -34 9
0 33 -11 52 -25 102 -71 120 -81 145 -76 24 4 25 6 12 26 -8 11 -25 23 -38 26
-14 3 -40 17 -59 31 -19 15 -69 39 -110 53 -41 15 -89 35 -106 45 -27 16 -81
32 -154 46 -14 3 -56 8 -95 11 -38 3 -83 6 -100 8 -16 1 -70 -7 -120 -20z"/>
<path d="M1175 2180 c-114 -31 -212 -68 -332 -127 -104 -51 -197 -121 -206
-153 -3 -11 -3 -20 0 -20 3 0 48 29 101 63 126 82 193 118 287 154 79 29 229
63 279 63 70 0 298 -61 283 -76 -3 -3 -23 0 -44 7 -21 8 -45 14 -53 15 -9 0
-51 9 -93 18 -46 10 -97 15 -125 12 -73 -8 -289 -76 -322 -101 -8 -6 -40 -22
-70 -35 -30 -14 -75 -39 -100 -55 -25 -17 -75 -44 -112 -60 -64 -29 -80 -46
-46 -53 9 -2 23 4 31 13 9 8 23 15 31 15 11 0 7 -9 -15 -32 -63 -70 -99 -123
-84 -126 7 -2 25 4 40 14 14 9 29 13 33 9 4 -4 1 -10 -6 -12 -19 -7 -71 -53
-82 -72 -5 -9 -5 -23 -1 -30 6 -10 15 -6 35 14 14 14 26 30 26 34 0 5 9 11 20
14 11 3 20 3 20 1 0 -2 -22 -26 -50 -52 -45 -44 -64 -82 -41 -82 5 0 29 20 55
44 25 24 56 53 69 63 13 10 29 28 36 41 6 12 37 41 69 64 31 24 58 46 60 50 2
4 42 26 90 50 48 23 91 48 95 55 5 8 12 11 16 9 7 -5 83 20 136 44 68 30 182
28 295 -7 47 -14 91 -27 98 -29 7 -2 10 -8 7 -14 -3 -5 15 -22 41 -37 26 -16
59 -37 73 -48 14 -11 44 -29 66 -39 44 -20 127 -86 165 -130 51 -60 81 -87 90
-81 18 11 10 34 -17 49 -16 8 -51 39 -79 69 -29 30 -92 80 -140 112 -49 32
-101 66 -116 76 -15 11 -34 19 -42 19 -8 0 -18 5 -21 10 -21 34 157 -48 214
-99 19 -17 39 -31 44 -31 5 0 33 -22 62 -49 30 -26 64 -51 77 -54 34 -8 -105
120 -192 177 -38 25 -72 46 -76 46 -3 0 -29 12 -58 26 -28 14 -52 25 -53 25
-15 -5 -33 2 -33 13 0 8 -7 17 -16 20 -12 4 -15 2 -10 -9 7 -19 4 -19 -41 0
-19 8 -45 15 -57 15 -12 0 -27 5 -34 12 -7 7 -48 12 -109 12 -92 1 -103 -1
-188 -38 -49 -21 -92 -42 -95 -45 -3 -4 -15 -8 -28 -8 -58 -4 -248 -123 -315
-197 l-27 -31 10 31 c7 18 30 45 56 63 24 18 44 35 44 39 0 7 58 46 70 47 3 1
21 11 40 23 19 12 45 25 58 28 12 4 22 11 22 18 0 6 12 12 28 12 36 2 158 38
175 53 8 6 22 12 33 14 10 2 29 8 41 15 33 18 135 6 283 -33 81 -22 246 -89
266 -110 9 -8 19 -15 24 -15 4 0 38 -27 74 -60 41 -37 71 -57 81 -54 18 7 13
17 -37 63 -38 34 -75 59 -143 97 -16 9 -32 20 -35 23 -10 13 -121 62 -152 68
-18 3 -41 10 -51 15 -10 5 -30 12 -43 14 -13 2 -35 6 -49 8 -13 3 -29 7 -33
10 -20 12 -172 17 -193 6 -11 -6 -28 -13 -37 -15 -9 -2 -35 -11 -57 -20 -35
-15 -38 -15 -26 -1 12 14 10 16 -10 15 -13 0 -33 -4 -44 -8 -19 -8 -19 -8 5
-16 23 -7 24 -8 5 -15 -13 -5 -23 -2 -28 6 -9 15 -40 7 -34 -10 4 -13 -39 -37
-56 -30 -7 2 -22 -4 -32 -16 -10 -11 -25 -20 -33 -20 -8 0 -30 -9 -48 -21 -19
-11 -34 -19 -34 -17 0 2 -35 -29 -77 -69 -42 -40 -81 -73 -86 -73 -14 0 36 58
55 63 9 3 28 23 42 45 26 41 88 85 139 97 15 4 27 11 27 16 0 5 8 9 18 9 9 0
28 7 42 15 51 29 116 57 140 59 14 1 34 7 45 13 32 16 137 33 170 27 17 -3 50
-10 75 -14 25 -5 70 -16 100 -24 30 -9 65 -16 78 -16 30 0 209 -75 230 -96 8
-8 32 -22 53 -31 22 -8 49 -29 60 -45 26 -36 33 -32 18 11 -9 25 -30 43 -105
87 -52 31 -123 68 -158 84 -35 16 -77 41 -95 55 -17 15 -37 25 -43 22 -7 -2
-21 0 -32 5 -77 40 -267 60 -351 38z"/>
<path d="M1220 1941 c-41 -9 -93 -26 -115 -38 -22 -12 -74 -38 -115 -58 -96
-48 -195 -120 -257 -186 -26 -29 -54 -57 -61 -63 -8 -6 -39 -35 -69 -63 -30
-29 -59 -53 -64 -53 -5 0 -9 -7 -9 -15 0 -8 5 -15 11 -15 18 0 95 65 189 160
90 89 135 126 185 152 17 8 75 39 130 70 55 30 116 60 135 67 96 35 237 30
340 -11 75 -30 201 -119 249 -175 22 -26 43 -44 47 -40 4 4 -1 16 -11 27 -10
11 -13 20 -7 20 18 0 114 -94 162 -158 36 -49 74 -82 93 -82 2 0 3 9 4 21 1
14 -9 27 -32 40 -19 12 -44 36 -55 55 -33 52 -150 153 -191 164 -20 6 -43 18
-50 27 -19 22 -167 119 -210 137 -33 14 -98 25 -182 31 -23 1 -76 -5 -117 -14z"/>
<path d="M1200 1885 c-69 -23 -157 -68 -230 -120 -25 -18 -58 -35 -75 -39 -21
-5 -82 -59 -197 -176 -160 -161 -191 -200 -181 -227 9 -23 31 -14 41 15 5 16
51 70 101 120 50 51 91 96 91 102 0 16 62 80 93 97 17 8 39 25 49 37 14 16 17
17 12 4 -9 -27 21 -22 49 8 28 30 36 35 148 90 142 71 172 81 214 78 149 -13
278 -67 390 -164 26 -22 50 -40 56 -40 19 0 8 19 -28 49 -21 16 -60 48 -88 70
-70 57 -130 85 -210 96 -16 3 -43 7 -59 11 -61 13 -114 10 -176 -11z"/>
<path d="M1250 1841 c-77 -16 -315 -151 -267 -151 27 0 89 29 117 54 34 32
161 76 217 76 56 0 53 -7 -6 -15 -66 -8 -174 -49 -217 -81 -56 -43 -19 -43 58
-1 88 49 276 88 313 65 6 -3 30 -11 53 -18 24 -6 68 -31 98 -56 53 -43 90 -57
82 -32 -8 23 -136 103 -210 132 -75 29 -176 41 -238 27z"/>
<path d="M587 1814 c-14 -14 -7 -35 11 -32 9 2 17 10 17 17 0 16 -18 25 -28
15z"/>
<path d="M1355 1773 c-84 -11 -225 -69 -225 -93 0 -14 32 -12 55 4 35 24 158
63 207 65 38 2 63 -5 125 -36 103 -50 150 -54 86 -6 -71 51 -163 76 -248 66z"/>
<path d="M1291 1709 c-78 -20 -101 -33 -101 -55 0 -20 30 -17 65 6 26 17 45
22 130 34 11 2 38 -1 60 -7 56 -13 95 -16 95 -7 0 14 -111 50 -149 49 -14 0
-59 -9 -100 -20z"/>
<path d="M1330 1664 c-70 -23 -100 -38 -100 -49 0 -25 20 -27 56 -6 20 12 50
23 67 25 39 4 52 36 15 35 -13 0 -30 -3 -38 -5z"/>
<path d="M1860 1621 c0 -13 21 -49 48 -85 27 -33 68 -97 92 -141 50 -95 47
-92 62 -77 8 8 8 15 0 24 -5 7 -19 36 -29 64 -20 51 -71 126 -136 199 -34 37
-36 38 -37 16z"/>
<path d="M1322 1602 c-55 -15 -69 -30 -58 -57 5 -14 8 -14 28 -1 13 7 40 19
61 26 34 10 49 32 30 43 -5 2 -32 -3 -61 -11z"/>
<path d="M540 1569 c0 -11 5 -17 10 -14 6 3 10 13 10 21 0 8 -4 14 -10 14 -5
0 -10 -9 -10 -21z"/>
<path d="M973 1552 c-50 -65 -82 -116 -88 -143 -4 -15 -21 -40 -38 -55 -17
-16 -25 -21 -18 -11 7 9 11 17 8 17 -3 0 5 11 18 25 14 13 25 32 25 42 0 10 7
29 16 41 14 21 14 22 -10 22 -13 0 -26 -6 -29 -12 -3 -10 -9 -9 -23 3 -23 20
-40 15 -83 -25 -30 -28 -161 -217 -191 -276 -7 -14 -26 -39 -42 -56 -24 -26
-27 -32 -14 -37 9 -4 23 -4 31 -1 16 6 71 88 96 144 9 19 25 44 36 55 10 11
39 52 64 90 26 39 55 77 65 85 10 8 3 -5 -15 -30 -27 -38 -86 -137 -128 -215
-5 -11 -18 -36 -29 -55 -10 -19 -37 -60 -61 -92 -45 -59 -52 -78 -29 -78 26 0
97 83 127 150 42 92 136 257 174 305 14 18 14 17 0 -12 -8 -18 -15 -42 -15
-54 0 -12 -3 -19 -6 -16 -4 3 -14 -4 -24 -16 -25 -32 -110 -194 -110 -209 0
-16 -70 -131 -102 -166 -34 -40 -49 -70 -38 -77 18 -11 70 36 96 88 15 29 32
59 39 67 6 8 23 42 36 75 13 33 27 62 30 65 4 3 19 29 33 58 15 30 30 51 33
48 3 -3 -5 -28 -19 -56 l-25 -50 27 0 c24 0 29 6 40 45 7 25 17 48 21 51 5 3
5 -5 0 -18 -4 -13 -11 -35 -15 -50 -6 -25 -3 -28 17 -28 21 0 26 7 36 58 6 31
13 74 16 95 6 46 42 118 89 180 41 54 41 53 21 60 -9 4 -25 -8 -42 -31z"/>
<path d="M941 1561 c-12 -12 -21 -27 -21 -33 0 -7 12 0 27 14 15 15 24 30 21
34 -4 3 -16 -4 -27 -15z"/>
<path d="M1021 1532 c-17 -20 -42 -58 -56 -83 -25 -46 -25 -47 -4 -52 17 -5
24 2 40 37 10 24 26 49 35 56 8 8 22 26 29 41 23 44 -7 45 -44 1z"/>
<path d="M1567 1554 c-4 -4 3 -19 14 -35 11 -16 27 -51 35 -79 9 -32 20 -50
30 -50 34 0 -8 127 -52 157 -11 7 -23 10 -27 7z"/>
<path d="M1628 1554 c-4 -3 5 -29 18 -57 13 -29 24 -62 24 -74 0 -25 15 -37
35 -29 12 4 12 12 1 51 -8 25 -11 43 -6 40 4 -2 13 -25 20 -50 13 -47 40 -62
40 -22 -1 28 -23 90 -44 122 -21 32 -52 24 -34 -8 8 -17 5 -16 -15 6 -28 29
-30 30 -39 21z"/>
<path d="M1730 1550 c0 -6 9 -27 20 -47 11 -21 20 -48 20 -60 0 -47 29 -77 31
-30 l0 22 11 -22 c6 -13 16 -23 22 -23 13 0 19 -59 19 -190 0 -152 -3 -190
-10 -190 -9 0 -8 89 1 187 5 55 3 64 -14 73 -19 10 -20 7 -19 -63 1 -57 -4
-83 -20 -113 -12 -21 -21 -42 -21 -45 0 -14 -31 -81 -36 -76 -3 2 2 20 10 38
51 118 57 141 54 202 -4 80 -21 76 -30 -6 -24 -207 -187 -345 -346 -293 -54
18 -75 35 -136 109 -31 38 -41 45 -52 36 -21 -18 -18 -27 34 -81 62 -67 152
-109 234 -111 61 -1 61 -1 29 -15 -39 -15 -66 -11 -144 21 -56 24 -125 79
-164 133 -12 16 -25 24 -32 20 -29 -18 86 -143 161 -176 51 -22 138 -47 156
-44 6 1 18 2 25 3 7 0 40 17 72 36 36 22 52 28 41 16 -10 -11 -43 -32 -74 -46
-74 -35 -120 -31 -233 23 -74 36 -92 50 -135 105 -27 35 -55 62 -61 60 -19 -7
-16 -21 15 -61 56 -75 161 -145 253 -167 72 -18 103 -37 47 -29 -133 20 -260
97 -332 202 -28 41 -49 52 -61 32 -17 -27 136 -190 178 -190 14 0 30 -6 36
-14 16 -18 163 -66 204 -66 56 0 94 17 169 75 40 31 59 44 42 28 -102 -95
-139 -113 -230 -113 -57 0 -155 30 -196 60 -32 24 -60 26 -52 5 10 -24 144
-84 214 -94 l65 -10 -72 4 c-85 4 -196 53 -218 95 -8 14 -35 45 -60 69 -25 25
-61 69 -81 98 -26 39 -41 53 -58 53 l-23 0 19 -39 c20 -41 60 -86 146 -164 28
-26 52 -51 52 -55 0 -4 21 -18 48 -31 26 -13 60 -31 76 -39 16 -8 63 -18 105
-22 l76 -7 -70 -2 c-62 -1 -83 4 -175 42 -125 52 -138 58 -212 109 -64 43
-133 127 -153 185 -7 21 -20 39 -28 41 -12 2 -14 -7 -11 -47 3 -49 12 -66 64
-121 56 -59 246 -175 302 -185 17 -3 49 -16 72 -28 100 -53 209 -48 331 17 36
19 65 31 65 28 0 -14 -116 -70 -173 -85 -77 -20 -171 -15 -206 11 -15 11 -57
29 -94 40 -36 11 -86 34 -112 51 -25 17 -49 31 -54 31 -4 0 -36 20 -71 45 -35
25 -72 45 -82 45 -10 0 -35 7 -55 15 -42 18 -88 12 -97 -12 -10 -26 9 -37 33
-21 19 13 27 13 69 -1 26 -9 80 -36 121 -60 41 -24 99 -57 128 -72 30 -16 72
-44 94 -62 27 -24 50 -34 76 -35 21 -1 49 -4 63 -7 102 -21 179 -12 289 35 38
16 42 17 22 2 -13 -9 -59 -29 -103 -43 -75 -25 -138 -29 -208 -15 -8 1 -33 6
-55 10 -22 4 -50 9 -61 12 -12 2 -41 20 -65 40 -24 20 -72 51 -109 71 -36 19
-92 50 -125 68 -84 48 -149 48 -245 0 -37 -19 -71 -39 -75 -45 -10 -16 27 -25
39 -9 28 37 133 61 196 46 42 -9 98 -32 122 -48 14 -11 28 -19 31 -19 3 0 29
-16 58 -35 30 -19 59 -35 66 -35 6 0 14 -4 18 -9 10 -17 -69 0 -90 19 -35 30
-147 86 -190 95 -88 17 -225 -9 -197 -37 9 -9 18 -9 37 0 14 6 40 9 57 6 122
-19 163 -31 243 -70 50 -25 115 -49 145 -55 47 -9 244 -37 290 -42 49 -5 173
30 230 64 8 5 62 33 120 62 58 29 114 58 125 64 11 6 42 20 69 32 34 15 46 25
39 32 -8 8 -17 7 -32 -1 -12 -6 -35 -13 -51 -15 -16 -2 -44 -14 -62 -28 -28
-21 -78 -41 -78 -32 0 2 20 15 45 29 25 15 55 37 68 49 36 35 105 87 115 87
14 0 52 36 52 49 0 13 -26 15 -34 2 -6 -9 -161 -117 -204 -141 -15 -9 -45 -28
-67 -43 -48 -32 -70 -36 -29 -5 16 13 35 28 42 35 7 7 20 13 27 13 8 0 29 13
47 29 18 15 51 38 73 49 22 11 61 38 87 60 l47 39 -34 73 c-19 39 -35 78 -35
86 0 9 -7 36 -15 62 -29 90 -45 177 -31 161 15 -16 56 -139 62 -187 5 -40 50
-132 64 -132 16 0 12 30 -9 64 -10 17 -22 42 -26 54 -6 21 -5 23 13 13 39 -21
45 -11 13 19 -17 17 -31 36 -31 43 0 6 -7 21 -16 32 -8 11 -19 38 -25 60 -13
47 -26 66 -43 59 -6 -2 -12 4 -13 14 -3 41 -88 198 -116 213 -30 17 -27 -8 7
-52 43 -57 73 -136 87 -229 6 -40 17 -83 24 -95 7 -11 16 -37 20 -59 3 -21 17
-63 30 -92 29 -64 36 -124 16 -124 -4 0 -6 11 -4 24 7 34 -15 42 -29 11 -9
-21 -9 -28 1 -34 8 -6 1 -16 -25 -36 -35 -27 -36 -27 -20 -3 37 57 52 162 26
193 -5 6 -11 27 -13 46 -2 19 -9 45 -16 58 -7 13 -15 46 -18 75 -2 28 -8 65
-14 81 -5 17 -9 33 -9 38 1 13 -31 69 -77 140 -41 62 -63 82 -63 57z m164
-500 c-4 -42 -14 -91 -25 -110 -10 -19 -18 -30 -19 -24 -1 29 -30 21 -52 -14
-22 -37 -49 -64 -57 -56 -2 2 6 11 18 21 11 10 35 45 52 78 23 47 29 54 27 31
-2 -17 2 -31 9 -33 21 -8 33 44 34 146 1 73 4 89 10 66 5 -16 6 -64 3 -105z
m-78 8 c-10 -58 -41 -130 -65 -154 -32 -33 -70 -58 -77 -52 -2 3 11 16 31 29
34 24 85 111 99 172 8 32 18 37 12 5z m111 -78 c-6 -45 -48 -133 -80 -167 -35
-39 -30 -18 11 40 23 33 43 78 51 111 14 65 26 75 18 16z m-207 -33 c0 -2 -15
-16 -32 -33 l-33 -29 29 33 c28 30 36 37 36 29z m-90 -42 c0 -2 -10 -9 -22
-15 -22 -11 -22 -10 -4 4 21 17 26 19 26 11z m220 -17 c-1 -7 -17 -31 -36 -53
-37 -42 -36 -35 6 28 28 41 30 43 30 25z m-230 -93 c0 -9 -90 -45 -108 -44 -9
0 10 11 43 23 33 13 61 24 63 25 1 0 2 -1 2 -4z m150 -20 c-7 -9 -15 -13 -17
-11 -7 7 7 26 19 26 6 0 6 -6 -2 -15z m-75 -15 c-3 -5 -11 -10 -16 -10 -6 0
-7 5 -4 10 3 6 11 10 16 10 6 0 7 -4 4 -10z m45 -7 c0 -5 -17 -18 -38 -31
l-37 -23 35 30 c38 33 40 34 40 24z m-97 -63 c-4 -4 -19 -11 -33 -15 -25 -7
-25 -7 -5 12 11 11 26 18 33 15 7 -2 10 -8 5 -12z m-77 -35 c-25 -19 -32 -19
-40 0 -4 11 2 15 27 15 30 -1 31 -1 13 -15z m204 1 c0 -9 -56 -44 -80 -50 -14
-4 -2 6 25 22 59 35 55 33 55 28z m-510 -68 c10 -6 6 -7 -15 -3 -16 4 -34 11
-40 17 -12 12 31 1 55 -14z"/>
<path d="M1840 1550 c0 -4 16 -32 36 -61 20 -30 53 -85 73 -123 51 -97 55
-103 84 -130 17 -16 33 -23 44 -19 14 5 12 9 -9 27 -14 12 -60 82 -103 156
-42 74 -81 139 -86 144 -12 13 -39 17 -39 6z"/>
<path d="M1316 1537 c-36 -11 -41 -17 -53 -62 -7 -28 -11 -57 -8 -65 2 -8 7
-37 10 -65 7 -60 56 -163 95 -200 l28 -27 0 51 c1 37 -5 59 -24 87 -47 69 -76
190 -53 224 8 12 10 12 8 -5 -5 -45 15 -133 39 -175 l27 -45 3 35 c3 33 -13
103 -29 125 -10 15 -3 93 10 108 6 8 8 17 4 20 -8 8 -8 8 -57 -6z m12 -275
c10 -20 26 -49 36 -64 10 -16 14 -28 9 -28 -8 0 -64 91 -82 134 -11 27 22 -11
37 -42z"/>
<path d="M1059 1505 c-38 -60 -59 -99 -54 -103 7 -7 45 9 45 19 0 5 11 26 24
47 14 23 21 44 16 56 -5 16 -10 14 -31 -19z"/>
<path d="M705 1487 c-56 -66 -91 -112 -125 -162 -18 -27 -42 -60 -53 -72 -21
-24 -17 -56 7 -47 8 3 18 15 22 26 3 11 34 53 69 93 34 39 70 86 79 103 9 17
24 35 33 41 13 7 15 14 7 31 -10 22 -10 22 -39 -13z"/>
<path d="M1378 1508 c-3 -7 -1 -24 3 -38 6 -22 7 -20 8 13 1 38 -3 47 -11 25z"/>
<path d="M1562 1452 c0 -36 5 -55 15 -59 8 -3 16 -3 19 0 8 8 -7 74 -22 94
-12 16 -13 12 -12 -35z"/>
<path d="M1083 1463 c-3 -10 -8 -22 -11 -27 -3 -5 0 -6 5 -3 11 7 25 47 17 47
-3 0 -7 -8 -11 -17z"/>
<path d="M1208 1383 c-9 -10 -14 -26 -13 -35 3 -16 56 -70 63 -63 2 2 -3 26
-12 53 -8 28 -12 53 -9 56 4 3 2 6 -4 6 -5 0 -17 -8 -25 -17z"/>
<path d="M1140 1356 c0 -2 7 -6 15 -10 8 -3 15 -1 15 4 0 6 -7 10 -15 10 -8 0
-15 -2 -15 -4z"/>
<path d="M919 1335 c-1 -3 -2 -8 -3 -12 -2 -5 -6 -43 -10 -85 -7 -63 -5 -80 8
-99 16 -23 16 -23 16 20 0 56 8 50 11 -8 2 -28 9 -46 20 -52 27 -14 30 -11 24
19 -3 15 -8 46 -10 69 -3 23 -9 53 -15 67 -5 14 -6 26 -2 27 4 0 -3 4 -15 9
-15 6 -21 15 -18 30 3 17 -2 31 -6 15z"/>
<path d="M980 1258 c0 -29 6 -59 25 -145 6 -25 12 -27 34 -14 11 7 11 15 1 45
-7 21 -13 61 -14 89 -2 45 -6 52 -24 55 -19 3 -22 -1 -22 -30z"/>
<path d="M1050 1237 c0 -65 11 -118 24 -114 6 2 11 18 11 35 0 33 9 42 18 20
3 -7 6 -3 6 10 1 29 -24 78 -44 85 -12 5 -15 -2 -15 -36z"/>
<path d="M1585 1270 c-12 -3 -20 -14 -21 -27 -1 -19 1 -21 20 -12 21 10 21 10
1 -8 -17 -15 -20 -31 -20 -90 0 -58 3 -73 15 -73 13 -1 13 -2 -1 -13 -9 -7
-15 -20 -13 -29 3 -21 -9 -25 -68 -23 -27 1 -48 -2 -48 -7 0 -7 19 -10 70 -10
11 0 28 0 37 1 10 1 42 27 72 59 30 31 49 48 43 37 -6 -12 -33 -42 -61 -68
-57 -53 -91 -59 -177 -31 -42 13 -56 26 -99 84 -27 38 -53 69 -56 69 -4 1 -10
-6 -13 -15 -8 -21 57 -113 105 -147 43 -31 135 -52 186 -42 20 4 55 26 92 60
53 50 61 63 85 139 14 46 26 95 26 107 0 31 -15 55 -24 40 -4 -6 -12 -11 -17
-11 -6 0 -8 4 -5 9 5 8 -52 8 -58 0 -1 -2 -10 -23 -21 -47 -10 -23 -25 -48
-33 -55 -9 -6 -3 9 11 34 40 69 33 86 -28 69z m98 -52 c-3 -16 -9 -28 -14 -28
-11 0 -11 3 1 36 13 33 20 29 13 -8z m32 -37 c-4 -23 -10 -43 -14 -45 -4 -3
-3 17 3 44 12 59 21 59 11 1z m-71 -51 c-10 -16 -24 -32 -31 -35 -8 -2 -2 11
13 30 32 43 41 45 18 5z"/>
<path d="M1280 1191 c9 -48 78 -150 103 -151 19 0 3 44 -28 76 -19 19 -44 52
-55 74 -11 22 -22 40 -24 40 -2 0 0 -17 4 -39z"/>
<path d="M706 1073 c-16 -37 -38 -80 -48 -95 -10 -14 -18 -31 -18 -37 0 -7
-20 -33 -44 -59 -32 -34 -42 -52 -36 -62 7 -11 18 -6 53 26 25 21 51 53 58 69
7 17 21 41 31 54 9 12 20 39 24 60 4 20 11 41 16 48 6 7 6 23 1 38 -8 24 -10
21 -37 -42z"/>
<path d="M750 1045 c0 -14 -4 -33 -9 -43 -5 -9 -19 -37 -31 -62 -13 -25 -52
-74 -87 -109 -43 -43 -60 -67 -52 -72 7 -4 19 -1 26 7 8 8 18 14 22 14 4 0 31
22 59 49 34 32 52 58 52 73 0 13 11 40 25 60 14 20 25 43 26 50 1 15 17 -43
23 -87 6 -43 27 -85 41 -85 7 0 18 -7 25 -15 16 -19 30 -19 30 -1 0 7 -11 21
-25 30 -24 16 -33 43 -38 120 -1 27 -8 42 -22 50 -11 6 -26 19 -33 29 -19 24
-32 21 -32 -8z"/>
<path d="M916 981 c-10 -15 31 -85 76 -131 57 -59 192 -154 197 -139 2 6 -2
14 -8 18 -41 26 -172 152 -188 181 -34 66 -64 93 -77 71z"/>
<path d="M756 944 c-3 -9 -6 -27 -6 -40 0 -29 -56 -93 -118 -136 -52 -36 -45
-60 9 -32 47 24 89 56 89 67 0 5 11 20 25 33 14 13 25 19 25 14 0 -6 7 -10 16
-10 10 0 14 7 12 18 -2 9 -9 16 -16 15 -8 -2 -10 10 -5 42 5 36 3 45 -10 45
-8 0 -18 -7 -21 -16z"/>
<path d="M1956 780 c-66 -42 -48 -57 25 -20 33 17 57 35 54 40 -10 16 -29 12
-79 -20z"/>
<path d="M1930 670 c-127 -52 -174 -75 -306 -148 -13 -7 -61 -22 -106 -33 -46
-10 -95 -23 -111 -28 -15 -5 -25 -5 -22 -1 11 17 -31 28 -121 33 -51 2 -96 7
-101 10 -9 6 -36 12 -97 23 -16 3 -54 19 -84 36 -67 36 -162 58 -254 58 -54 0
-68 -3 -68 -15 0 -17 19 -22 114 -30 38 -3 73 -8 76 -10 4 -3 24 -7 44 -9 20
-2 67 -18 104 -35 88 -39 208 -62 320 -61 28 1 52 -3 52 -8 0 -10 -146 -8
-212 2 -21 3 -53 8 -71 11 -18 2 -80 20 -138 39 -78 26 -125 36 -186 38 -50 2
-83 -1 -83 -7 -2 -13 69 -34 135 -41 28 -3 76 -14 109 -25 73 -25 255 -50 361
-50 91 0 211 19 335 54 47 13 110 30 140 37 30 7 60 16 65 20 6 4 35 15 65 23
56 17 105 51 95 67 -3 5 -31 -2 -61 -15 -31 -14 -86 -34 -122 -46 -37 -11 -74
-23 -82 -26 -10 -4 -12 -2 -5 5 6 5 28 15 50 22 76 24 247 109 240 120 -9 14
-23 12 -75 -10z"/>
<path d="M1868 531 c-36 -16 -84 -32 -105 -36 -21 -5 -43 -9 -50 -11 -7 -1
-34 -9 -60 -18 -52 -17 -78 -22 -163 -35 -30 -5 -73 -13 -95 -19 -65 -17 -204
-19 -260 -4 -22 6 -71 13 -110 17 -92 7 -122 12 -170 30 -47 17 -123 26 -130
15 -11 -17 219 -82 310 -86 88 -5 135 -13 135 -23 0 -4 -15 -6 -32 -4 -107 10
-165 10 -188 -2 -14 -7 -51 -15 -84 -19 -63 -6 -75 -11 -60 -26 5 -5 36 -5 79
1 85 12 568 20 510 8 -22 -4 -71 -8 -110 -7 -88 0 -343 -19 -377 -28 -5 -1
-17 -2 -28 -3 -11 0 -20 -5 -20 -11 0 -9 261 -6 385 5 59 5 58 5 -35 -21 -52
-14 -107 -27 -122 -29 -40 -5 -68 -15 -68 -25 0 -11 49 -19 56 -9 3 5 28 9 55
9 28 0 60 5 71 11 13 7 18 7 14 0 -16 -25 49 -33 101 -13 15 6 66 13 113 16
47 2 119 14 160 25 41 12 85 21 97 21 13 0 22 5 20 12 -1 7 7 13 18 14 11 1
44 8 73 17 29 9 55 16 59 16 4 0 9 4 11 10 5 15 -43 24 -65 13 -14 -8 -107
-30 -140 -34 -5 -1 -23 -7 -40 -15 -18 -7 -53 -15 -77 -18 -89 -9 -143 -17
-201 -32 -93 -23 -128 -26 -70 -6 28 10 55 21 60 25 9 6 68 19 105 23 8 1 31
5 50 8 19 4 49 9 65 11 24 3 110 23 170 40 6 1 26 6 45 10 19 5 51 17 70 27
19 10 47 23 63 29 15 5 27 14 27 20 0 17 -35 11 -101 -19 -61 -27 -106 -39
-174 -47 -53 -6 -4 13 53 21 29 4 79 20 112 36 33 16 64 29 68 29 12 1 57 38
51 44 -3 3 -34 -6 -69 -21 -117 -47 -345 -97 -495 -108 -44 -3 -41 -2 20 10
39 8 79 16 90 19 115 27 168 39 215 46 88 14 232 72 259 104 21 25 -13 20 -91
-13z m-560 -168 c-10 -2 -26 -2 -35 0 -10 3 -2 5 17 5 19 0 27 -2 18 -5z m302
-12 c-8 -5 -37 -12 -63 -16 -27 -3 -57 -8 -66 -10 -10 -2 -24 0 -31 5 -8 5 12
11 51 17 97 13 127 14 109 4z"/>
<path d="M756 392 c-9 -15 9 -24 57 -27 23 -2 56 -6 73 -10 22 -5 34 -2 43 9
8 9 12 16 10 17 -2 0 -15 2 -29 4 -14 1 -53 6 -86 10 -40 5 -63 4 -68 -3z"/>
<path d="M924 229 c-6 -10 5 -15 49 -22 26 -4 46 8 33 20 -10 10 -76 12 -82 2z"/>
<path d="M1582 213 c-22 -9 -3 -20 27 -15 17 2 28 8 25 13 -6 10 -31 11 -52 2z"/>
<path d="M1456 192 c-3 -3 -6 -9 -6 -14 0 -12 40 -6 43 6 2 10 -29 17 -37 8z"/>
</g>
</svg>
